<svg xmlns="http://www.w3.org/2000/svg" viewBox="0 0 1200 260" role="img" aria-labelledby="t d"><title id="t">Hall of Justice Archives</title><desc id="d">Original monumental arch emblem and wordmark</desc><defs><linearGradient id="g" x1="0" x2="1"><stop stop-color="#8c682e"/><stop offset=".5" stop-color="#e2c77d"/><stop offset="1" stop-color="#9b7334"/></linearGradient></defs><rect width="1200" height="260" fill="none"/><g transform="translate(24 20)" fill="none" stroke="url(#g)" stroke-width="10"><path d="M24 205V74Q24 20 82 20h56q58 0 58 54v131"/><path d="M60 205V84q0-27 30-27h40q30 0 30 27v121"/><path d="M15 205h190M49 170h122"/><path d="m110 83 10 21 23 3-17 16 4 23-20-11-20 11 4-23-17-16 23-3z" fill="url(#g)" stroke-width="3"/></g><text x="255" y="118" fill="#f2ead8" font-family="Georgia,serif" font-size="74" letter-spacing="4">HALL OF JUSTICE</text><text x="260" y="184" fill="#c8a24a" font-family="Arial,sans-serif" font-size="31" letter-spacing="14">ARCHIVES</text></svg>
